<svg width="228" height="136" viewBox="0 0 228 136" fill="none" xmlns="http://www.w3.org/2000/svg">
<path d="M14 12.7642L228 0L188 136L23 127L14 12.7642Z" fill="#619EBB"/>
<path d="M1.04907e-06 61L26 61L26 37L1.04907e-06 61Z" fill="#619EBB"/>
<path d="M40 29H48.5V30.7H50.2V44.3H48.5V46H40V29ZM43.4 42.6H46.8V32.4H43.4V42.6ZM51.8867 34.1H53.5867V32.4H60.3867V34.1H62.0867V44.3H60.3867V46H53.5867V44.3H51.8867V34.1ZM55.2867 42.6H58.6867V35.8H55.2867V42.6ZM73.9668 32.4H77.3668V39.2H80.7668V32.4H84.1668V46H82.4668V47.7H75.6668V44.3H80.7668V42.6H75.6668V40.9H73.9668V32.4ZM85.8535 34.1H87.5535V32.4H94.3535V34.1H96.0535V44.3H94.3535V46H87.5535V44.3H85.8535V34.1ZM89.2535 42.6H92.6535V35.8H89.2535V42.6ZM97.7402 32.4H101.14V42.6H104.54V32.4H107.94V46H99.4402V44.3H97.7402V32.4ZM109.627 32.4H113.027V34.1H114.727V32.4H118.127V34.1H119.827V37.5H116.427V35.8H114.727V37.5H113.027V46H109.627V32.4ZM131.707 32.4H133.407V29H136.807V32.4H140.207V35.8H136.807V42.6H140.207V46H135.107V44.3H133.407V35.8H131.707V32.4ZM141.9 29H145.3V32.4H150.4V34.1H152.1V46H148.7V35.8H145.3V46H141.9V29ZM153.787 32.4H157.187V46H153.787V32.4ZM153.787 27.3H157.187V30.7H153.787V27.3ZM158.9 32.4H162.3V34.1H164V32.4H167.4V34.1H169.1V46H165.7V35.8H164V37.5H162.3V46H158.9V32.4ZM170.787 34.1H172.487V32.4H180.987V46H179.287V47.7H172.487V44.3H177.587V42.6H172.487V40.9H170.787V34.1ZM177.587 35.8H174.187V39.2H177.587V35.8ZM182.674 34.1H184.374V32.4H192.874V35.8H186.074V37.5H191.174V39.2H192.874V44.3H191.174V46H182.674V42.6H189.474V40.9H184.374V39.2H182.674V34.1ZM40 64.4H50.2V66.1H51.9V78H48.5V67.8H46.8V78H45.1V67.8H43.4V78H40V64.4ZM55.3133 64.4H62.1133V66.1H63.8133V78H55.3133V76.3H53.6133V71.2H55.3133V69.5H60.4133V67.8H55.3133V64.4ZM57.0133 74.6H60.4133V72.9H57.0133V74.6ZM65.5 64.4H68.9V66.1H70.6V64.4H74V66.1H75.7V78H72.3V67.8H70.6V69.5H68.9V78H65.5V64.4ZM77.3867 74.6H80.7867V78H77.3867V74.6ZM84.1934 74.6H87.5934V78H84.1934V74.6ZM101.193 61H111.393V64.4H107.993V74.6H111.393V78H101.193V74.6H104.593V64.4H101.193V61ZM123.273 64.4H126.673V74.6H128.373V64.4H130.073V74.6H131.773V64.4H135.173V76.3H133.473V78H124.973V76.3H123.273V64.4ZM136.887 66.1H138.587V64.4H145.387V66.1H147.087V76.3H145.387V78H138.587V76.3H136.887V66.1ZM140.287 74.6H143.687V67.8H140.287V74.6ZM148.773 64.4H152.173V66.1H153.873V64.4H157.273V66.1H158.973V78H155.573V67.8H153.873V69.5H152.173V78H148.773V64.4ZM160.66 61H164.06V67.8H160.66V61ZM165.773 64.4H167.473V61H170.873V64.4H174.273V67.8H170.873V74.6H174.273V78H169.173V76.3H167.473V67.8H165.773V64.4ZM40 96.4H41.7V93H45.1V96.4H48.5V99.8H45.1V106.6H48.5V110H43.4V108.3H41.7V99.8H40V96.4ZM50.1934 98.1H51.8934V96.4H58.6934V98.1H60.3934V104.9H53.5934V106.6H60.3934V110H51.8934V108.3H50.1934V98.1ZM53.5934 99.8V101.5H56.9934V99.8H53.5934ZM62.0801 93H65.4801V110H62.0801V93ZM67.1934 93H70.5934V110H67.1934V93ZM84.2 96.4H91V98.1H92.7V110H84.2V108.3H82.5V103.2H84.2V101.5H89.3V99.8H84.2V96.4ZM85.9 106.6H89.3V104.9H85.9V106.6ZM94.3867 96.4H97.7867V98.1H99.4867V96.4H102.887V98.1H104.587V110H101.187V99.8H99.4867V101.5H97.7867V110H94.3867V96.4ZM106.273 96.4H109.673V103.2H113.073V96.4H116.473V110H114.773V111.7H107.973V108.3H113.073V106.6H107.973V104.9H106.273V96.4ZM118.16 98.1H119.86V96.4H126.66V98.1H128.36V108.3H126.66V110H119.86V108.3H118.16V98.1ZM121.56 106.6H124.96V99.8H121.56V106.6ZM130.047 96.4H133.447V98.1H135.147V96.4H138.547V98.1H140.247V110H136.847V99.8H135.147V101.5H133.447V110H130.047V96.4ZM141.934 98.1H143.634V96.4H150.434V98.1H152.134V104.9H145.334V106.6H152.134V110H143.634V108.3H141.934V98.1ZM145.334 99.8V101.5H148.734V99.8H145.334ZM153.82 106.6H157.22V110H153.82V106.6Z" fill="#061E29"/>
</svg>
